<?xml version="1.0" encoding="UTF-8" standalone="no"?>
<!DOCTYPE svg PUBLIC "-//W3C//DTD SVG 1.1//EN"
 "http://www.w3.org/Graphics/SVG/1.1/DTD/svg11.dtd">
<!-- Generated by graphviz version 2.40.1 (20161225.0304)
 -->
<!-- Title: vulnerability information obtained via Trivy DB Pages: 1 -->
<svg width="880pt" height="339pt"
 viewBox="0.00 0.00 879.50 339.00" xmlns="http://www.w3.org/2000/svg" xmlns:xlink="http://www.w3.org/1999/xlink">
<g id="graph0" class="graph" transform="scale(1 1) rotate(0) translate(4 335)">
<title>vulnerability information obtained via Trivy DB</title>
<polygon fill="#ffffff" stroke="transparent" points="-4,4 -4,-335 875.5,-335 875.5,4 -4,4"/>
<!-- public.vulnerabilities -->
<g id="node1" class="node">
<title>public.vulnerabilities</title>
<polygon fill="#efefef" stroke="transparent" points="43,-207.5 43,-242.5 345,-242.5 345,-207.5 43,-207.5"/>
<polygon fill="none" stroke="#000000" points="43,-207.5 43,-242.5 345,-242.5 345,-207.5 43,-207.5"/>
<text text-anchor="start" x="49.7101" y="-220.3" font-family="Arial Bold" font-size="18.00" fill="#000000">public.vulnerabilities</text>
<text text-anchor="start" x="210.7219" y="-220.3" font-family="Arial" font-size="14.00" fill="#000000">    </text>
<text text-anchor="start" x="244.9267" y="-220.3" font-family="Arial" font-size="14.00" fill="#666666">[BASE TABLE]</text>
<polygon fill="none" stroke="#000000" points="43,-177.5 43,-207.5 345,-207.5 345,-177.5 43,-177.5"/>
<text text-anchor="start" x="50" y="-188.9" font-family="Arial" font-size="14.00" fill="#000000">id    </text>
<text text-anchor="start" x="95.094" y="-188.9" font-family="Arial" font-size="14.00" fill="#666666">[integer]</text>
<polygon fill="none" stroke="#000000" points="43,-147.5 43,-177.5 345,-177.5 345,-147.5 43,-147.5"/>
<text text-anchor="start" x="50" y="-158.9" font-family="Arial" font-size="14.00" fill="#000000">vulnerability_id    </text>
<text text-anchor="start" x="176.7672" y="-158.9" font-family="Arial" font-size="14.00" fill="#666666">[varchar(128)]</text>
<polygon fill="none" stroke="#000000" points="43,-117.5 43,-147.5 345,-147.5 345,-117.5 43,-117.5"/>
<text text-anchor="start" x="50" y="-128.9" font-family="Arial" font-size="14.00" fill="#000000">value    </text>
<text text-anchor="start" x="117.6592" y="-128.9" font-family="Arial" font-size="14.00" fill="#666666">[json]</text>
<polygon fill="none" stroke="#000000" points="43,-87.5 43,-117.5 345,-117.5 345,-87.5 43,-87.5"/>
<text text-anchor="start" x="50" y="-98.9" font-family="Arial" font-size="14.00" fill="#000000">created_at    </text>
<text text-anchor="start" x="150.3422" y="-98.9" font-family="Arial" font-size="14.00" fill="#666666">[timestamp without time zone]</text>
</g>
<!-- public.vulnerability_advisories -->
<g id="node2" class="node">
<title>public.vulnerability_advisories</title>
<polygon fill="#efefef" stroke="transparent" points="450,-252.5 450,-287.5 829,-287.5 829,-252.5 450,-252.5"/>
<polygon fill="none" stroke="#000000" points="450,-252.5 450,-287.5 829,-287.5 829,-252.5 450,-252.5"/>
<text text-anchor="start" x="456.7045" y="-265.3" font-family="Arial Bold" font-size="18.00" fill="#000000">public.vulnerability_advisories</text>
<text text-anchor="start" x="694.7275" y="-265.3" font-family="Arial" font-size="14.00" fill="#000000">    </text>
<text text-anchor="start" x="728.9323" y="-265.3" font-family="Arial" font-size="14.00" fill="#666666">[BASE TABLE]</text>
<polygon fill="none" stroke="#000000" points="450,-222.5 450,-252.5 829,-252.5 829,-222.5 450,-222.5"/>
<text text-anchor="start" x="457" y="-233.9" font-family="Arial" font-size="14.00" fill="#000000">id    </text>
<text text-anchor="start" x="502.094" y="-233.9" font-family="Arial" font-size="14.00" fill="#666666">[integer]</text>
<polygon fill="none" stroke="#000000" points="450,-192.5 450,-222.5 829,-222.5 829,-192.5 450,-192.5"/>
<text text-anchor="start" x="457" y="-203.9" font-family="Arial" font-size="14.00" fill="#000000">vulnerability_id    </text>
<text text-anchor="start" x="583.7672" y="-203.9" font-family="Arial" font-size="14.00" fill="#666666">[varchar(128)]</text>
<polygon fill="none" stroke="#000000" points="450,-162.5 450,-192.5 829,-192.5 829,-162.5 450,-162.5"/>
<text text-anchor="start" x="457" y="-173.9" font-family="Arial" font-size="14.00" fill="#000000">platform    </text>
<text text-anchor="start" x="541.7616" y="-173.9" font-family="Arial" font-size="14.00" fill="#666666">[varchar(50)]</text>
<polygon fill="none" stroke="#000000" points="450,-132.5 450,-162.5 829,-162.5 829,-132.5 450,-132.5"/>
<text text-anchor="start" x="457" y="-143.9" font-family="Arial" font-size="14.00" fill="#000000">segment    </text>
<text text-anchor="start" x="544.8864" y="-143.9" font-family="Arial" font-size="14.00" fill="#666666">[varchar(50)]</text>
<polygon fill="none" stroke="#000000" points="450,-102.5 450,-132.5 829,-132.5 829,-102.5 450,-102.5"/>
<text text-anchor="start" x="457" y="-113.9" font-family="Arial" font-size="14.00" fill="#000000">package    </text>
<text text-anchor="start" x="544.1178" y="-113.9" font-family="Arial" font-size="14.00" fill="#666666">[varchar(100)]</text>
<polygon fill="none" stroke="#000000" points="450,-72.5 450,-102.5 829,-102.5 829,-72.5 450,-72.5"/>
<text text-anchor="start" x="457" y="-83.9" font-family="Arial" font-size="14.00" fill="#000000">value    </text>
<text text-anchor="start" x="524.6592" y="-83.9" font-family="Arial" font-size="14.00" fill="#666666">[json]</text>
<polygon fill="none" stroke="#000000" points="450,-42.5 450,-72.5 829,-72.5 829,-42.5 450,-42.5"/>
<text text-anchor="start" x="457" y="-53.9" font-family="Arial" font-size="14.00" fill="#000000">created_at    </text>
<text text-anchor="start" x="557.3422" y="-53.9" font-family="Arial" font-size="14.00" fill="#666666">[timestamp without time zone]</text>
</g>
</g>
</svg>
