<?xml version="1.0" encoding="UTF-8" standalone="no"?>
<!DOCTYPE svg PUBLIC "-//W3C//DTD SVG 1.1//EN"
 "http://www.w3.org/Graphics/SVG/1.1/DTD/svg11.dtd">
<!-- Generated by graphviz version 2.40.1 (20161225.0304)
 -->
<!-- Title: vulnerability information obtained via Trivy DB Pages: 1 -->
<svg width="820pt" height="339pt"
 viewBox="0.00 0.00 819.50 339.00" xmlns="http://www.w3.org/2000/svg" xmlns:xlink="http://www.w3.org/1999/xlink">
<g id="graph0" class="graph" transform="scale(1 1) rotate(0) translate(4 335)">
<title>vulnerability information obtained via Trivy DB</title>
<polygon fill="#ffffff" stroke="transparent" points="-4,4 -4,-335 815.5,-335 815.5,4 -4,4"/>
<!-- public.vulnerabilities -->
<g id="node1" class="node">
<title>public.vulnerabilities</title>
<polygon fill="#efefef" stroke="transparent" points="43,-207.5 43,-242.5 315,-242.5 315,-207.5 43,-207.5"/>
<polygon fill="none" stroke="#000000" points="43,-207.5 43,-242.5 315,-242.5 315,-207.5 43,-207.5"/>
<text text-anchor="start" x="49.8672" y="-220.3" font-family="Arial Bold" font-size="18.00" fill="#000000">public.vulnerabilities</text>
<text text-anchor="start" x="210.879" y="-220.3" font-family="Arial" font-size="14.00" fill="#000000"> </text>
<text text-anchor="start" x="214.7696" y="-220.3" font-family="Arial" font-size="14.00" fill="#666666">[BASE TABLE]</text>
<polygon fill="none" stroke="#000000" points="43,-177.5 43,-207.5 315,-207.5 315,-177.5 43,-177.5"/>
<text text-anchor="start" x="50" y="-188.9" font-family="Arial" font-size="14.00" fill="#000000">id </text>
<text text-anchor="start" x="64.7798" y="-188.9" font-family="Arial" font-size="14.00" fill="#666666">[integer]</text>
<polygon fill="none" stroke="#000000" points="43,-147.5 43,-177.5 315,-177.5 315,-147.5 43,-147.5"/>
<text text-anchor="start" x="50" y="-158.9" font-family="Arial" font-size="14.00" fill="#000000">vulnerability_id </text>
<text text-anchor="start" x="146.453" y="-158.9" font-family="Arial" font-size="14.00" fill="#666666">[varchar(25)]</text>
<polygon fill="none" stroke="#000000" points="43,-117.5 43,-147.5 315,-147.5 315,-117.5 43,-117.5"/>
<text text-anchor="start" x="50" y="-128.9" font-family="Arial" font-size="14.00" fill="#000000">value </text>
<text text-anchor="start" x="87.345" y="-128.9" font-family="Arial" font-size="14.00" fill="#666666">[json]</text>
<polygon fill="none" stroke="#000000" points="43,-87.5 43,-117.5 315,-117.5 315,-87.5 43,-87.5"/>
<text text-anchor="start" x="50" y="-98.9" font-family="Arial" font-size="14.00" fill="#000000">created </text>
<text text-anchor="start" x="100.5722" y="-98.9" font-family="Arial" font-size="14.00" fill="#666666">[timestamp without time zone]</text>
</g>
<!-- public.vulnerability_advisories -->
<g id="node2" class="node">
<title>public.vulnerability_advisories</title>
<polygon fill="#efefef" stroke="transparent" points="420,-252.5 420,-287.5 769,-287.5 769,-252.5 420,-252.5"/>
<polygon fill="none" stroke="#000000" points="420,-252.5 420,-287.5 769,-287.5 769,-252.5 420,-252.5"/>
<text text-anchor="start" x="426.8616" y="-265.3" font-family="Arial Bold" font-size="18.00" fill="#000000">public.vulnerability_advisories</text>
<text text-anchor="start" x="664.8846" y="-265.3" font-family="Arial" font-size="14.00" fill="#000000"> </text>
<text text-anchor="start" x="668.7752" y="-265.3" font-family="Arial" font-size="14.00" fill="#666666">[BASE TABLE]</text>
<polygon fill="none" stroke="#000000" points="420,-222.5 420,-252.5 769,-252.5 769,-222.5 420,-222.5"/>
<text text-anchor="start" x="427" y="-233.9" font-family="Arial" font-size="14.00" fill="#000000">id </text>
<text text-anchor="start" x="441.7798" y="-233.9" font-family="Arial" font-size="14.00" fill="#666666">[integer]</text>
<polygon fill="none" stroke="#000000" points="420,-192.5 420,-222.5 769,-222.5 769,-192.5 420,-192.5"/>
<text text-anchor="start" x="427" y="-203.9" font-family="Arial" font-size="14.00" fill="#000000">vulnerability_id </text>
<text text-anchor="start" x="523.453" y="-203.9" font-family="Arial" font-size="14.00" fill="#666666">[varchar(25)]</text>
<polygon fill="none" stroke="#000000" points="420,-162.5 420,-192.5 769,-192.5 769,-162.5 420,-162.5"/>
<text text-anchor="start" x="427" y="-173.9" font-family="Arial" font-size="14.00" fill="#000000">platform </text>
<text text-anchor="start" x="481.4474" y="-173.9" font-family="Arial" font-size="14.00" fill="#666666">[varchar(50)]</text>
<polygon fill="none" stroke="#000000" points="420,-132.5 420,-162.5 769,-162.5 769,-132.5 420,-132.5"/>
<text text-anchor="start" x="427" y="-143.9" font-family="Arial" font-size="14.00" fill="#000000">segment </text>
<text text-anchor="start" x="484.5722" y="-143.9" font-family="Arial" font-size="14.00" fill="#666666">[varchar(50)]</text>
<polygon fill="none" stroke="#000000" points="420,-102.5 420,-132.5 769,-132.5 769,-102.5 420,-102.5"/>
<text text-anchor="start" x="427" y="-113.9" font-family="Arial" font-size="14.00" fill="#000000">package </text>
<text text-anchor="start" x="483.8036" y="-113.9" font-family="Arial" font-size="14.00" fill="#666666">[varchar(100)]</text>
<polygon fill="none" stroke="#000000" points="420,-72.5 420,-102.5 769,-102.5 769,-72.5 420,-72.5"/>
<text text-anchor="start" x="427" y="-83.9" font-family="Arial" font-size="14.00" fill="#000000">value </text>
<text text-anchor="start" x="464.345" y="-83.9" font-family="Arial" font-size="14.00" fill="#666666">[json]</text>
<polygon fill="none" stroke="#000000" points="420,-42.5 420,-72.5 769,-72.5 769,-42.5 420,-42.5"/>
<text text-anchor="start" x="427" y="-53.9" font-family="Arial" font-size="14.00" fill="#000000">created </text>
<text text-anchor="start" x="477.5722" y="-53.9" font-family="Arial" font-size="14.00" fill="#666666">[timestamp without time zone]</text>
</g>
</g>
</svg>
