<?xml version="1.0" encoding="UTF-8" standalone="no"?>
<!DOCTYPE svg PUBLIC "-//W3C//DTD SVG 1.1//EN"
 "http://www.w3.org/Graphics/SVG/1.1/DTD/svg11.dtd">
<!-- Generated by graphviz version 2.40.1 (20161225.0304)
 -->
<!-- Title: vulnerability information obtained via Trivy DB Pages: 1 -->
<svg width="674pt" height="339pt"
 viewBox="0.00 0.00 673.50 339.00" xmlns="http://www.w3.org/2000/svg" xmlns:xlink="http://www.w3.org/1999/xlink">
<g id="graph0" class="graph" transform="scale(1 1) rotate(0) translate(4 335)">
<title>vulnerability information obtained via Trivy DB</title>
<polygon fill="#ffffff" stroke="transparent" points="-4,4 -4,-335 669.5,-335 669.5,4 -4,4"/>
<!-- vulnerabilities -->
<g id="node1" class="node">
<title>vulnerabilities</title>
<polygon fill="#efefef" stroke="transparent" points="43.5,-207.5 43.5,-242.5 246.5,-242.5 246.5,-207.5 43.5,-207.5"/>
<polygon fill="none" stroke="#000000" points="43.5,-207.5 43.5,-242.5 246.5,-242.5 246.5,-207.5 43.5,-207.5"/>
<text text-anchor="start" x="54.3332" y="-220.3" font-family="Arial Bold" font-size="18.00" fill="#000000">vulnerabilities</text>
<text text-anchor="start" x="163.3358" y="-220.3" font-family="Arial" font-size="14.00" fill="#000000">    </text>
<text text-anchor="start" x="197.5406" y="-220.3" font-family="Arial" font-size="14.00" fill="#666666">[table]</text>
<polygon fill="none" stroke="#000000" points="43.5,-177.5 43.5,-207.5 246.5,-207.5 246.5,-177.5 43.5,-177.5"/>
<text text-anchor="start" x="50.5" y="-188.9" font-family="Arial" font-size="14.00" fill="#000000">id    </text>
<text text-anchor="start" x="95.594" y="-188.9" font-family="Arial" font-size="14.00" fill="#666666">[INTEGER]</text>
<polygon fill="none" stroke="#000000" points="43.5,-147.5 43.5,-177.5 246.5,-177.5 246.5,-147.5 43.5,-147.5"/>
<text text-anchor="start" x="50.5" y="-158.9" font-family="Arial" font-size="14.00" fill="#000000">vulnerability_id    </text>
<text text-anchor="start" x="177.2672" y="-158.9" font-family="Arial" font-size="14.00" fill="#666666">[TEXT]</text>
<polygon fill="none" stroke="#000000" points="43.5,-117.5 43.5,-147.5 246.5,-147.5 246.5,-117.5 43.5,-117.5"/>
<text text-anchor="start" x="50.5" y="-128.9" font-family="Arial" font-size="14.00" fill="#000000">value    </text>
<text text-anchor="start" x="118.1592" y="-128.9" font-family="Arial" font-size="14.00" fill="#666666">[TEXT]</text>
<polygon fill="none" stroke="#000000" points="43.5,-87.5 43.5,-117.5 246.5,-117.5 246.5,-87.5 43.5,-87.5"/>
<text text-anchor="start" x="50.1066" y="-98.9" font-family="Arial" font-size="14.00" fill="#000000">created_at    </text>
<text text-anchor="start" x="150.4488" y="-98.9" font-family="Arial" font-size="14.00" fill="#666666">[TIMESTAMP]</text>
</g>
<!-- vulnerability_advisories -->
<g id="node2" class="node">
<title>vulnerability_advisories</title>
<polygon fill="#efefef" stroke="transparent" points="350.5,-252.5 350.5,-287.5 622.5,-287.5 622.5,-252.5 350.5,-252.5"/>
<polygon fill="none" stroke="#000000" points="350.5,-252.5 350.5,-287.5 622.5,-287.5 622.5,-252.5 350.5,-252.5"/>
<text text-anchor="start" x="357.3276" y="-265.3" font-family="Arial Bold" font-size="18.00" fill="#000000">vulnerability_advisories</text>
<text text-anchor="start" x="543.3414" y="-265.3" font-family="Arial" font-size="14.00" fill="#000000">    </text>
<text text-anchor="start" x="577.5462" y="-265.3" font-family="Arial" font-size="14.00" fill="#666666">[table]</text>
<polygon fill="none" stroke="#000000" points="350.5,-222.5 350.5,-252.5 622.5,-252.5 622.5,-222.5 350.5,-222.5"/>
<text text-anchor="start" x="357.5" y="-233.9" font-family="Arial" font-size="14.00" fill="#000000">id    </text>
<text text-anchor="start" x="402.594" y="-233.9" font-family="Arial" font-size="14.00" fill="#666666">[INTEGER]</text>
<polygon fill="none" stroke="#000000" points="350.5,-192.5 350.5,-222.5 622.5,-222.5 622.5,-192.5 350.5,-192.5"/>
<text text-anchor="start" x="357.5" y="-203.9" font-family="Arial" font-size="14.00" fill="#000000">vulnerability_id    </text>
<text text-anchor="start" x="484.2672" y="-203.9" font-family="Arial" font-size="14.00" fill="#666666">[TEXT]</text>
<polygon fill="none" stroke="#000000" points="350.5,-162.5 350.5,-192.5 622.5,-192.5 622.5,-162.5 350.5,-162.5"/>
<text text-anchor="start" x="357.5" y="-173.9" font-family="Arial" font-size="14.00" fill="#000000">platform    </text>
<text text-anchor="start" x="442.2616" y="-173.9" font-family="Arial" font-size="14.00" fill="#666666">[TEXT]</text>
<polygon fill="none" stroke="#000000" points="350.5,-132.5 350.5,-162.5 622.5,-162.5 622.5,-132.5 350.5,-132.5"/>
<text text-anchor="start" x="357.5" y="-143.9" font-family="Arial" font-size="14.00" fill="#000000">segment    </text>
<text text-anchor="start" x="445.3864" y="-143.9" font-family="Arial" font-size="14.00" fill="#666666">[TEXT]</text>
<polygon fill="none" stroke="#000000" points="350.5,-102.5 350.5,-132.5 622.5,-132.5 622.5,-102.5 350.5,-102.5"/>
<text text-anchor="start" x="357.5" y="-113.9" font-family="Arial" font-size="14.00" fill="#000000">package    </text>
<text text-anchor="start" x="444.6178" y="-113.9" font-family="Arial" font-size="14.00" fill="#666666">[TEXT]</text>
<polygon fill="none" stroke="#000000" points="350.5,-72.5 350.5,-102.5 622.5,-102.5 622.5,-72.5 350.5,-72.5"/>
<text text-anchor="start" x="357.5" y="-83.9" font-family="Arial" font-size="14.00" fill="#000000">value    </text>
<text text-anchor="start" x="425.1592" y="-83.9" font-family="Arial" font-size="14.00" fill="#666666">[TEXT]</text>
<polygon fill="none" stroke="#000000" points="350.5,-42.5 350.5,-72.5 622.5,-72.5 622.5,-42.5 350.5,-42.5"/>
<text text-anchor="start" x="357.5" y="-53.9" font-family="Arial" font-size="14.00" fill="#000000">created_at    </text>
<text text-anchor="start" x="457.8422" y="-53.9" font-family="Arial" font-size="14.00" fill="#666666">[TIMESTAMP]</text>
</g>
</g>
</svg>
