<?xml version="1.0" encoding="UTF-8" standalone="no"?>
<!DOCTYPE svg PUBLIC "-//W3C//DTD SVG 1.1//EN"
 "http://www.w3.org/Graphics/SVG/1.1/DTD/svg11.dtd">
<!-- Generated by graphviz version 2.40.1 (20161225.0304)
 -->
<!-- Title: vulnerability information obtained via Trivy DB Pages: 1 -->
<svg width="716pt" height="339pt"
 viewBox="0.00 0.00 715.50 339.00" xmlns="http://www.w3.org/2000/svg" xmlns:xlink="http://www.w3.org/1999/xlink">
<g id="graph0" class="graph" transform="scale(1 1) rotate(0) translate(4 335)">
<title>vulnerability information obtained via Trivy DB</title>
<polygon fill="#ffffff" stroke="transparent" points="-4,4 -4,-335 711.5,-335 711.5,4 -4,4"/>
<!-- vulnerabilities -->
<g id="node1" class="node">
<title>vulnerabilities</title>
<polygon fill="#efefef" stroke="transparent" points="43,-207.5 43,-242.5 263,-242.5 263,-207.5 43,-207.5"/>
<polygon fill="none" stroke="#000000" points="43,-207.5 43,-242.5 263,-242.5 263,-207.5 43,-207.5"/>
<text text-anchor="start" x="49.8718" y="-220.3" font-family="Arial Bold" font-size="18.00" fill="#000000">vulnerabilities</text>
<text text-anchor="start" x="158.8744" y="-220.3" font-family="Arial" font-size="14.00" fill="#000000"> </text>
<text text-anchor="start" x="162.765" y="-220.3" font-family="Arial" font-size="14.00" fill="#666666">[BASE TABLE]</text>
<polygon fill="none" stroke="#000000" points="43,-177.5 43,-207.5 263,-207.5 263,-177.5 43,-177.5"/>
<text text-anchor="start" x="50" y="-188.9" font-family="Arial" font-size="14.00" fill="#000000">id </text>
<text text-anchor="start" x="64.7798" y="-188.9" font-family="Arial" font-size="14.00" fill="#666666">[int(11)]</text>
<polygon fill="none" stroke="#000000" points="43,-147.5 43,-177.5 263,-177.5 263,-147.5 43,-147.5"/>
<text text-anchor="start" x="50" y="-158.9" font-family="Arial" font-size="14.00" fill="#000000">vulnerability_id </text>
<text text-anchor="start" x="146.453" y="-158.9" font-family="Arial" font-size="14.00" fill="#666666">[varchar(25)]</text>
<polygon fill="none" stroke="#000000" points="43,-117.5 43,-147.5 263,-147.5 263,-117.5 43,-117.5"/>
<text text-anchor="start" x="50" y="-128.9" font-family="Arial" font-size="14.00" fill="#000000">value </text>
<text text-anchor="start" x="87.345" y="-128.9" font-family="Arial" font-size="14.00" fill="#666666">[json]</text>
<polygon fill="none" stroke="#000000" points="43,-87.5 43,-117.5 263,-117.5 263,-87.5 43,-87.5"/>
<text text-anchor="start" x="50" y="-98.9" font-family="Arial" font-size="14.00" fill="#000000">created </text>
<text text-anchor="start" x="100.5722" y="-98.9" font-family="Arial" font-size="14.00" fill="#666666">[timestamp]</text>
</g>
<!-- vulnerability_advisories -->
<g id="node2" class="node">
<title>vulnerability_advisories</title>
<polygon fill="#efefef" stroke="transparent" points="368,-252.5 368,-287.5 665,-287.5 665,-252.5 368,-252.5"/>
<polygon fill="none" stroke="#000000" points="368,-252.5 368,-287.5 665,-287.5 665,-252.5 368,-252.5"/>
<text text-anchor="start" x="374.8662" y="-265.3" font-family="Arial Bold" font-size="18.00" fill="#000000">vulnerability_advisories</text>
<text text-anchor="start" x="560.88" y="-265.3" font-family="Arial" font-size="14.00" fill="#000000"> </text>
<text text-anchor="start" x="564.7706" y="-265.3" font-family="Arial" font-size="14.00" fill="#666666">[BASE TABLE]</text>
<polygon fill="none" stroke="#000000" points="368,-222.5 368,-252.5 665,-252.5 665,-222.5 368,-222.5"/>
<text text-anchor="start" x="375" y="-233.9" font-family="Arial" font-size="14.00" fill="#000000">id </text>
<text text-anchor="start" x="389.7798" y="-233.9" font-family="Arial" font-size="14.00" fill="#666666">[int(11)]</text>
<polygon fill="none" stroke="#000000" points="368,-192.5 368,-222.5 665,-222.5 665,-192.5 368,-192.5"/>
<text text-anchor="start" x="375" y="-203.9" font-family="Arial" font-size="14.00" fill="#000000">vulnerability_id </text>
<text text-anchor="start" x="471.453" y="-203.9" font-family="Arial" font-size="14.00" fill="#666666">[varchar(25)]</text>
<polygon fill="none" stroke="#000000" points="368,-162.5 368,-192.5 665,-192.5 665,-162.5 368,-162.5"/>
<text text-anchor="start" x="375" y="-173.9" font-family="Arial" font-size="14.00" fill="#000000">platform </text>
<text text-anchor="start" x="429.4474" y="-173.9" font-family="Arial" font-size="14.00" fill="#666666">[varchar(50)]</text>
<polygon fill="none" stroke="#000000" points="368,-132.5 368,-162.5 665,-162.5 665,-132.5 368,-132.5"/>
<text text-anchor="start" x="375" y="-143.9" font-family="Arial" font-size="14.00" fill="#000000">segment </text>
<text text-anchor="start" x="432.5722" y="-143.9" font-family="Arial" font-size="14.00" fill="#666666">[varchar(50)]</text>
<polygon fill="none" stroke="#000000" points="368,-102.5 368,-132.5 665,-132.5 665,-102.5 368,-102.5"/>
<text text-anchor="start" x="375" y="-113.9" font-family="Arial" font-size="14.00" fill="#000000">package </text>
<text text-anchor="start" x="431.8036" y="-113.9" font-family="Arial" font-size="14.00" fill="#666666">[varchar(100)]</text>
<polygon fill="none" stroke="#000000" points="368,-72.5 368,-102.5 665,-102.5 665,-72.5 368,-72.5"/>
<text text-anchor="start" x="375" y="-83.9" font-family="Arial" font-size="14.00" fill="#000000">value </text>
<text text-anchor="start" x="412.345" y="-83.9" font-family="Arial" font-size="14.00" fill="#666666">[json]</text>
<polygon fill="none" stroke="#000000" points="368,-42.5 368,-72.5 665,-72.5 665,-42.5 368,-42.5"/>
<text text-anchor="start" x="375" y="-53.9" font-family="Arial" font-size="14.00" fill="#000000">created </text>
<text text-anchor="start" x="425.5722" y="-53.9" font-family="Arial" font-size="14.00" fill="#666666">[timestamp]</text>
</g>
</g>
</svg>
