<?xml version="1.0" encoding="UTF-8" standalone="no"?>
<!DOCTYPE svg PUBLIC "-//W3C//DTD SVG 1.1//EN"
 "http://www.w3.org/Graphics/SVG/1.1/DTD/svg11.dtd">
<!-- Generated by graphviz version 2.40.1 (20161225.0304)
 -->
<!-- Title: vulnerability information obtained via Trivy DB Pages: 1 -->
<svg width="776pt" height="339pt"
 viewBox="0.00 0.00 775.50 339.00" xmlns="http://www.w3.org/2000/svg" xmlns:xlink="http://www.w3.org/1999/xlink">
<g id="graph0" class="graph" transform="scale(1 1) rotate(0) translate(4 335)">
<title>vulnerability information obtained via Trivy DB</title>
<polygon fill="#ffffff" stroke="transparent" points="-4,4 -4,-335 771.5,-335 771.5,4 -4,4"/>
<!-- vulnerabilities -->
<g id="node1" class="node">
<title>vulnerabilities</title>
<polygon fill="#efefef" stroke="transparent" points="43,-207.5 43,-242.5 293,-242.5 293,-207.5 43,-207.5"/>
<polygon fill="none" stroke="#000000" points="43,-207.5 43,-242.5 293,-242.5 293,-207.5 43,-207.5"/>
<text text-anchor="start" x="49.7147" y="-220.3" font-family="Arial Bold" font-size="18.00" fill="#000000">vulnerabilities</text>
<text text-anchor="start" x="158.7173" y="-220.3" font-family="Arial" font-size="14.00" fill="#000000">    </text>
<text text-anchor="start" x="192.9221" y="-220.3" font-family="Arial" font-size="14.00" fill="#666666">[BASE TABLE]</text>
<polygon fill="none" stroke="#000000" points="43,-177.5 43,-207.5 293,-207.5 293,-177.5 43,-177.5"/>
<text text-anchor="start" x="50" y="-188.9" font-family="Arial" font-size="14.00" fill="#000000">id    </text>
<text text-anchor="start" x="95.094" y="-188.9" font-family="Arial" font-size="14.00" fill="#666666">[int]</text>
<polygon fill="none" stroke="#000000" points="43,-147.5 43,-177.5 293,-177.5 293,-147.5 43,-147.5"/>
<text text-anchor="start" x="50" y="-158.9" font-family="Arial" font-size="14.00" fill="#000000">vulnerability_id    </text>
<text text-anchor="start" x="176.7672" y="-158.9" font-family="Arial" font-size="14.00" fill="#666666">[varchar(128)]</text>
<polygon fill="none" stroke="#000000" points="43,-117.5 43,-147.5 293,-147.5 293,-117.5 43,-117.5"/>
<text text-anchor="start" x="50" y="-128.9" font-family="Arial" font-size="14.00" fill="#000000">value    </text>
<text text-anchor="start" x="117.6592" y="-128.9" font-family="Arial" font-size="14.00" fill="#666666">[json]</text>
<polygon fill="none" stroke="#000000" points="43,-87.5 43,-117.5 293,-117.5 293,-87.5 43,-87.5"/>
<text text-anchor="start" x="50" y="-98.9" font-family="Arial" font-size="14.00" fill="#000000">created_at    </text>
<text text-anchor="start" x="150.3422" y="-98.9" font-family="Arial" font-size="14.00" fill="#666666">[datetime]</text>
</g>
<!-- vulnerability_advisories -->
<g id="node2" class="node">
<title>vulnerability_advisories</title>
<polygon fill="#efefef" stroke="transparent" points="398,-252.5 398,-287.5 725,-287.5 725,-252.5 398,-252.5"/>
<polygon fill="none" stroke="#000000" points="398,-252.5 398,-287.5 725,-287.5 725,-252.5 398,-252.5"/>
<text text-anchor="start" x="404.7091" y="-265.3" font-family="Arial Bold" font-size="18.00" fill="#000000">vulnerability_advisories</text>
<text text-anchor="start" x="590.7229" y="-265.3" font-family="Arial" font-size="14.00" fill="#000000">    </text>
<text text-anchor="start" x="624.9277" y="-265.3" font-family="Arial" font-size="14.00" fill="#666666">[BASE TABLE]</text>
<polygon fill="none" stroke="#000000" points="398,-222.5 398,-252.5 725,-252.5 725,-222.5 398,-222.5"/>
<text text-anchor="start" x="405" y="-233.9" font-family="Arial" font-size="14.00" fill="#000000">id    </text>
<text text-anchor="start" x="450.094" y="-233.9" font-family="Arial" font-size="14.00" fill="#666666">[int]</text>
<polygon fill="none" stroke="#000000" points="398,-192.5 398,-222.5 725,-222.5 725,-192.5 398,-192.5"/>
<text text-anchor="start" x="405" y="-203.9" font-family="Arial" font-size="14.00" fill="#000000">vulnerability_id    </text>
<text text-anchor="start" x="531.7672" y="-203.9" font-family="Arial" font-size="14.00" fill="#666666">[varchar(128)]</text>
<polygon fill="none" stroke="#000000" points="398,-162.5 398,-192.5 725,-192.5 725,-162.5 398,-162.5"/>
<text text-anchor="start" x="405" y="-173.9" font-family="Arial" font-size="14.00" fill="#000000">platform    </text>
<text text-anchor="start" x="489.7616" y="-173.9" font-family="Arial" font-size="14.00" fill="#666666">[varchar(50)]</text>
<polygon fill="none" stroke="#000000" points="398,-132.5 398,-162.5 725,-162.5 725,-132.5 398,-132.5"/>
<text text-anchor="start" x="405" y="-143.9" font-family="Arial" font-size="14.00" fill="#000000">segment    </text>
<text text-anchor="start" x="492.8864" y="-143.9" font-family="Arial" font-size="14.00" fill="#666666">[varchar(50)]</text>
<polygon fill="none" stroke="#000000" points="398,-102.5 398,-132.5 725,-132.5 725,-102.5 398,-102.5"/>
<text text-anchor="start" x="405" y="-113.9" font-family="Arial" font-size="14.00" fill="#000000">package    </text>
<text text-anchor="start" x="492.1178" y="-113.9" font-family="Arial" font-size="14.00" fill="#666666">[varchar(100)]</text>
<polygon fill="none" stroke="#000000" points="398,-72.5 398,-102.5 725,-102.5 725,-72.5 398,-72.5"/>
<text text-anchor="start" x="405" y="-83.9" font-family="Arial" font-size="14.00" fill="#000000">value    </text>
<text text-anchor="start" x="472.6592" y="-83.9" font-family="Arial" font-size="14.00" fill="#666666">[json]</text>
<polygon fill="none" stroke="#000000" points="398,-42.5 398,-72.5 725,-72.5 725,-42.5 398,-42.5"/>
<text text-anchor="start" x="405" y="-53.9" font-family="Arial" font-size="14.00" fill="#000000">created_at    </text>
<text text-anchor="start" x="505.3422" y="-53.9" font-family="Arial" font-size="14.00" fill="#666666">[datetime]</text>
</g>
</g>
</svg>
