<?xml version="1.0" encoding="UTF-8" standalone="no"?>
<!DOCTYPE svg PUBLIC "-//W3C//DTD SVG 1.1//EN"
 "http://www.w3.org/Graphics/SVG/1.1/DTD/svg11.dtd">
<!-- Generated by graphviz version 2.40.1 (20161225.0304)
 -->
<!-- Title: vulnerabilities Pages: 1 -->
<svg width="320pt" height="255pt"
 viewBox="0.00 0.00 320.00 255.00" xmlns="http://www.w3.org/2000/svg" xmlns:xlink="http://www.w3.org/1999/xlink">
<g id="graph0" class="graph" transform="scale(1 1) rotate(0) translate(4 251)">
<title>vulnerabilities</title>
<polygon fill="#ffffff" stroke="transparent" points="-4,4 -4,-251 316,-251 316,4 -4,4"/>
<!-- vulnerabilities -->
<g id="node1" class="node">
<title>vulnerabilities</title>
<polygon fill="#efefef" stroke="transparent" points="46,-165.5 46,-200.5 266,-200.5 266,-165.5 46,-165.5"/>
<polygon fill="none" stroke="#000000" points="46,-165.5 46,-200.5 266,-200.5 266,-165.5 46,-165.5"/>
<text text-anchor="start" x="52.8718" y="-178.3" font-family="Arial Bold" font-size="18.00" fill="#000000">vulnerabilities</text>
<text text-anchor="start" x="161.8744" y="-178.3" font-family="Arial" font-size="14.00" fill="#000000"> </text>
<text text-anchor="start" x="165.765" y="-178.3" font-family="Arial" font-size="14.00" fill="#666666">[BASE TABLE]</text>
<polygon fill="none" stroke="#000000" points="46,-135.5 46,-165.5 266,-165.5 266,-135.5 46,-135.5"/>
<text text-anchor="start" x="53" y="-146.9" font-family="Arial" font-size="14.00" fill="#000000">id </text>
<text text-anchor="start" x="67.7798" y="-146.9" font-family="Arial" font-size="14.00" fill="#666666">[int(11)]</text>
<polygon fill="none" stroke="#000000" points="46,-105.5 46,-135.5 266,-135.5 266,-105.5 46,-105.5"/>
<text text-anchor="start" x="53" y="-116.9" font-family="Arial" font-size="14.00" fill="#000000">vulnerability_id </text>
<text text-anchor="start" x="149.453" y="-116.9" font-family="Arial" font-size="14.00" fill="#666666">[varchar(25)]</text>
<polygon fill="none" stroke="#000000" points="46,-75.5 46,-105.5 266,-105.5 266,-75.5 46,-75.5"/>
<text text-anchor="start" x="53" y="-86.9" font-family="Arial" font-size="14.00" fill="#000000">value </text>
<text text-anchor="start" x="90.345" y="-86.9" font-family="Arial" font-size="14.00" fill="#666666">[json]</text>
<polygon fill="none" stroke="#000000" points="46,-45.5 46,-75.5 266,-75.5 266,-45.5 46,-45.5"/>
<text text-anchor="start" x="53" y="-56.9" font-family="Arial" font-size="14.00" fill="#000000">created </text>
<text text-anchor="start" x="103.5722" y="-56.9" font-family="Arial" font-size="14.00" fill="#666666">[timestamp]</text>
<polygon fill="none" stroke="#000000" stroke-width="3" points="44.5,-44.5 44.5,-202.5 267.5,-202.5 267.5,-44.5 44.5,-44.5"/>
</g>
</g>
</svg>
